<svg width="23" height="20" viewBox="0 0 23 20" fill="none" xmlns="http://www.w3.org/2000/svg">
  <path d="M7.22143 9.76871C6.71136 10.4049 6.25066 11.0411 5.84479 11.6664C5.77898 11.7651 5.71865 11.8638 5.65832 11.9571C5.59799 12.0503 5.54314 12.1435 5.48281 12.2368C5.45539 12.2807 5.43345 12.3245 5.40603 12.3629C5.38409 12.3958 5.36215 12.4342 5.34021 12.4671C5.3073 12.5165 5.27988 12.5713 5.24697 12.6207C5.18116 12.7359 5.11534 12.8565 5.04953 12.9717C4.07875 11.8858 3.23412 10.7888 2.54306 9.72483C3.27251 8.6663 4.15005 7.58035 5.14277 6.52182C5.15373 6.53827 5.15922 6.56021 5.17019 6.57667C5.19213 6.62054 5.21955 6.6699 5.24149 6.71927C5.26891 6.77411 5.30182 6.82896 5.32924 6.8838C5.35118 6.92768 5.3786 6.97156 5.40054 7.01543C5.46636 7.1361 5.53766 7.25676 5.60896 7.37742C5.6309 7.4213 5.65832 7.46517 5.68574 7.50357L5.69123 7.50905C5.70768 7.53647 5.72413 7.5639 5.74059 7.59132C5.76253 7.62971 5.78995 7.67359 5.81189 7.71198C5.84479 7.76683 5.8777 7.82167 5.9161 7.87652C5.949 7.93137 5.9874 7.9917 6.0203 8.04654C6.05321 8.10139 6.0916 8.16172 6.13 8.21657C6.13 8.21657 6.13 8.21656 6.13 8.22205C6.19581 8.32626 6.26162 8.42498 6.33292 8.52919C6.38229 8.60049 6.42616 8.67179 6.47552 8.7376C6.54682 8.83633 6.61812 8.94053 6.68942 9.04474C6.69491 9.05571 6.70588 9.06668 6.71136 9.07216C6.74976 9.12153 6.78815 9.17637 6.82106 9.23122C6.83203 9.24219 6.83751 9.25864 6.84848 9.26961C6.88687 9.31897 6.91978 9.36833 6.95817 9.4177C6.99108 9.46706 7.02947 9.51642 7.06238 9.5603C7.07335 9.57126 7.07883 9.58772 7.0898 9.59869C7.12819 9.65353 7.17207 9.70838 7.21595 9.76322C7.22143 9.76322 7.22143 9.76871 7.22143 9.76871Z" fill="black"/>
  <path d="M14.0827 3.53271C14.0498 3.54916 14.0223 3.5711 13.9894 3.59304C13.9401 3.62595 13.8907 3.65337 13.8468 3.68628C13.8084 3.70822 13.7701 3.73564 13.7317 3.76306C13.7042 3.785 13.6713 3.80145 13.6439 3.82339C13.5562 3.88372 13.4684 3.93857 13.3806 3.9989C13.3423 4.02632 13.2984 4.05375 13.26 4.08117C13.1229 4.17441 12.9858 4.27313 12.8486 4.37185C12.8212 4.39379 12.7883 4.41573 12.7609 4.43767C12.5086 4.62415 12.2563 4.81611 12.004 5.01355C11.9656 5.04098 11.9272 5.07388 11.8943 5.10131C11.8285 5.15067 11.7682 5.20003 11.7024 5.25488C11.6585 5.29327 11.6091 5.33166 11.5652 5.36457C11.5214 5.39748 11.4775 5.43587 11.4336 5.47426C11.3678 5.52911 11.302 5.58395 11.2362 5.6388C10.2818 4.82708 9.32203 4.12505 8.38965 3.53271C9.35494 2.77035 10.3147 2.11768 11.2362 1.59116C12.1631 2.11768 13.1174 2.77035 14.0827 3.53271Z" fill="black"/>
  <path d="M14.0443 16.2022C13.1009 16.9755 12.1521 17.6391 11.2362 18.1876C10.3202 17.6391 9.37688 16.97 8.42804 16.2022C8.49934 16.1528 8.57064 16.1089 8.64194 16.0596C8.67485 16.0376 8.71324 16.0102 8.74615 15.9883C8.88326 15.895 9.02586 15.7963 9.16298 15.6921C9.26718 15.6208 9.36591 15.544 9.47012 15.4672C9.54142 15.4124 9.61271 15.363 9.68401 15.3082C9.72789 15.2753 9.77177 15.2424 9.81565 15.2095C9.82113 15.204 9.82662 15.204 9.8321 15.1985C9.87598 15.1656 9.91985 15.1272 9.96922 15.0943C10.0899 15.001 10.2051 14.9078 10.3257 14.8146C10.3696 14.7762 10.419 14.7378 10.4628 14.7049C10.4957 14.6775 10.5286 14.65 10.5616 14.6226C10.6054 14.5897 10.6493 14.5513 10.6932 14.5129C10.8742 14.3593 11.0552 14.2058 11.2362 14.0467C11.4172 14.2058 11.5981 14.3593 11.7791 14.5129C11.823 14.5513 11.8669 14.5842 11.9108 14.6226C11.9437 14.65 11.9766 14.6775 12.0095 14.7049C12.0534 14.7433 12.1027 14.7817 12.1466 14.8146C12.2673 14.9133 12.3824 15.0065 12.5031 15.0943C12.547 15.1272 12.5909 15.1656 12.6402 15.1985C12.6457 15.204 12.6512 15.204 12.6567 15.2095C12.7006 15.2424 12.7444 15.2753 12.7883 15.3082C12.8596 15.363 12.9309 15.4179 13.0022 15.4672C13.1064 15.544 13.2051 15.6208 13.3093 15.6921C13.4465 15.7908 13.5891 15.8896 13.7262 15.9883C13.7591 16.0102 13.7975 16.0376 13.8304 16.0596C13.9017 16.1089 13.973 16.1583 14.0443 16.2022Z" fill="black"/>
  <path d="M19.9293 9.73032C19.2382 10.7943 18.3991 11.8967 17.4228 12.9772C16.8524 11.9406 16.1175 10.8547 15.2509 9.76871L15.2564 9.76322C15.3002 9.70838 15.3386 9.65353 15.3825 9.59869C15.3935 9.58772 15.399 9.57126 15.4099 9.5603C15.4483 9.51093 15.4812 9.46157 15.5141 9.4177C15.5525 9.36833 15.5854 9.31897 15.6238 9.26961C15.6348 9.25864 15.6403 9.24219 15.6513 9.23122C15.6897 9.17637 15.728 9.12701 15.761 9.07216C15.7664 9.06119 15.7774 9.05023 15.7829 9.04474C15.8542 8.94053 15.9255 8.84181 15.9968 8.7376C16.0462 8.6663 16.09 8.595 16.1394 8.52919C16.2107 8.42498 16.2765 8.32626 16.3423 8.22205C16.3423 8.22205 16.3423 8.22205 16.3423 8.21657C16.3807 8.16172 16.4136 8.10139 16.452 8.04654C16.4904 7.9917 16.5233 7.93137 16.5562 7.87652C16.5891 7.82167 16.622 7.76683 16.6604 7.71198C16.6824 7.67359 16.7098 7.62971 16.7317 7.59132C16.7482 7.5639 16.7646 7.53647 16.7811 7.50905L16.7866 7.50357C16.814 7.45969 16.8359 7.41581 16.8634 7.37742C16.9347 7.25676 17.0005 7.1361 17.0718 7.01543C17.0937 6.97156 17.1211 6.92768 17.1431 6.8838C17.1705 6.82896 17.2034 6.77411 17.2308 6.71927C17.2583 6.6699 17.2802 6.62603 17.3021 6.57667C17.3131 6.56021 17.3186 6.53827 17.3296 6.52182C18.3223 7.58583 19.1998 8.6663 19.9293 9.73032Z" fill="black"/>
  <path d="M8.43354 16.2022C8.15382 16.3886 7.87411 16.5642 7.59988 16.7287C7.56149 16.7506 7.51761 16.7781 7.47922 16.8C7.42986 16.8329 7.37501 16.8603 7.32016 16.8932C7.27629 16.9207 7.23241 16.9426 7.18853 16.97C7.1282 17.0029 7.06787 17.0358 7.00754 17.0687C6.95818 17.0962 6.90333 17.1236 6.85397 17.151C6.83203 17.162 6.80461 17.1784 6.78267 17.1894C6.74976 17.2058 6.72234 17.2223 6.68943 17.2388C6.53038 17.321 6.37681 17.3978 6.22324 17.4746C6.13 17.5185 6.03676 17.5623 5.94353 17.6062C5.90513 17.6227 5.86674 17.6446 5.82286 17.6611C5.76253 17.6885 5.7022 17.7159 5.64187 17.7379C5.60348 17.7543 5.56509 17.7708 5.5267 17.7872C5.17568 17.9353 4.83563 18.0614 4.50656 18.1657C4.46268 18.1821 4.4188 18.1931 4.37493 18.204C4.34202 18.215 4.3146 18.2205 4.28169 18.2315C4.25975 18.237 4.23781 18.2424 4.21587 18.2479C4.17748 18.2589 4.13909 18.2699 4.1007 18.2808C4.06779 18.2918 4.0294 18.2973 3.99649 18.3083C3.89777 18.3357 3.80453 18.3576 3.7058 18.3741C3.62902 18.0944 3.58514 17.7817 3.58514 17.4472C3.58514 17.4088 3.58514 17.3704 3.58514 17.3375C3.58514 17.332 3.58514 17.3265 3.58514 17.321C3.58514 17.2881 3.58514 17.2552 3.59063 17.2223C3.59063 17.1784 3.59611 17.14 3.59611 17.0962C3.59611 17.0797 3.59611 17.0687 3.6016 17.0523C3.60708 17.0194 3.60708 16.9865 3.61257 16.9481C3.61805 16.9207 3.61805 16.8877 3.62354 16.8603V16.8548C3.62354 16.8384 3.62902 16.8164 3.62902 16.8C3.6345 16.7671 3.63999 16.7287 3.64547 16.6958C3.65096 16.6738 3.65096 16.6519 3.65644 16.63C3.65644 16.6135 3.66193 16.6025 3.66193 16.5861C3.66741 16.5641 3.66741 16.5422 3.6729 16.5258C3.67838 16.5038 3.68387 16.4764 3.68387 16.449C3.68935 16.4215 3.69483 16.3941 3.70032 16.3667V16.3612C3.70032 16.3503 3.7058 16.3393 3.7058 16.3283C3.7058 16.3283 3.7058 16.3283 3.7058 16.3228C3.71129 16.2954 3.71677 16.2735 3.72226 16.246C3.7442 16.1418 3.77162 16.0376 3.79904 15.9279C3.81001 15.895 3.8155 15.8566 3.82647 15.8237C3.83195 15.8073 3.83743 15.7908 3.83743 15.7744C3.84292 15.7524 3.84841 15.7305 3.85937 15.7031C3.86486 15.6756 3.87583 15.6482 3.88131 15.6208C3.8868 15.5989 3.89228 15.5769 3.90325 15.555C3.90874 15.5276 3.9197 15.5056 3.92519 15.4782C3.93067 15.4563 3.94164 15.4343 3.94713 15.4124C4.05133 15.0888 4.172 14.7597 4.32008 14.4197C4.33105 14.3977 4.33654 14.3758 4.3475 14.3539C4.35847 14.3264 4.37493 14.2935 4.3859 14.2661C4.39686 14.2442 4.40235 14.2222 4.41332 14.2058C4.42977 14.1619 4.45171 14.118 4.47365 14.0741C4.49559 14.0248 4.51753 13.9809 4.53947 13.9315C4.64367 13.7122 4.75337 13.4928 4.86854 13.2679C4.89048 13.224 4.91242 13.1856 4.93436 13.1418C4.93984 13.1363 4.94533 13.1253 4.94533 13.1143C4.96178 13.0869 4.97275 13.0595 4.9892 13.0321C5.00566 13.0046 5.01663 12.9827 5.03308 12.9553C5.39507 13.3557 5.7735 13.7615 6.16839 14.1564C6.92527 14.9133 7.67666 15.5879 8.43354 16.2022Z" fill="black"/>
  <path d="M15.2509 9.76323C15.207 9.81808 15.1631 9.87292 15.1248 9.92777C15.0864 9.97713 15.048 10.0265 15.0096 10.0759C14.9109 10.202 14.8066 10.3336 14.7024 10.4598C14.675 10.4927 14.6476 10.5311 14.6147 10.564C14.5544 10.6408 14.4885 10.7176 14.4227 10.7889C14.3898 10.8327 14.3514 10.8711 14.313 10.915C14.2801 10.9534 14.2472 10.9973 14.2088 11.0357C14.2033 11.0411 14.2033 11.0411 14.1979 11.0466C14.1595 11.0905 14.1211 11.1399 14.0772 11.1837C14.0443 11.2167 14.0169 11.255 13.984 11.288C13.9401 11.3373 13.8962 11.3867 13.8523 11.436C13.8194 11.4744 13.781 11.5128 13.7481 11.5512C13.4081 11.9297 13.0516 12.3026 12.6786 12.6756C12.6073 12.7469 12.5415 12.8127 12.4702 12.8785C12.4263 12.9224 12.3824 12.9662 12.3386 13.0046C12.2673 13.0704 12.2015 13.1363 12.1302 13.2021C12.0698 13.2569 12.015 13.3118 11.9546 13.3666C11.823 13.4873 11.6969 13.6079 11.5652 13.7231C11.5214 13.7615 11.4775 13.7999 11.4336 13.8383C11.3623 13.8986 11.2965 13.9644 11.2252 14.0248C11.1539 13.9644 11.0881 13.9041 11.0168 13.8383C10.9729 13.7999 10.929 13.7615 10.8852 13.7231C10.7535 13.6079 10.6274 13.4873 10.4957 13.3666C10.4354 13.3118 10.3806 13.2569 10.3202 13.2021C10.2489 13.1363 10.1831 13.0704 10.1118 13.0046C10.0679 12.9608 10.0241 12.9224 9.98019 12.8785C9.90889 12.8127 9.84308 12.7414 9.77178 12.6756C9.39882 12.3026 9.04232 11.9297 8.70228 11.5512C8.66388 11.5128 8.63098 11.4744 8.59807 11.436C8.55419 11.3867 8.51032 11.3373 8.46644 11.288C8.43353 11.255 8.40611 11.2167 8.3732 11.1837C8.33481 11.1399 8.29093 11.0905 8.25254 11.0466C8.24705 11.0411 8.24705 11.0411 8.24157 11.0357C8.20866 10.9973 8.17027 10.9534 8.13736 10.915C8.09897 10.8711 8.06606 10.8327 8.02767 10.7889C7.96185 10.7121 7.90152 10.6353 7.83571 10.564C7.80829 10.5311 7.78086 10.4927 7.74795 10.4598C7.64375 10.3281 7.53954 10.202 7.44082 10.0759C7.40242 10.0265 7.36403 9.97713 7.32564 9.92777C7.28176 9.87292 7.23789 9.81808 7.19949 9.76323C7.23789 9.71387 7.28176 9.65902 7.32564 9.60966C7.35855 9.57127 7.39146 9.52739 7.42436 9.489C7.47921 9.42318 7.53405 9.35188 7.59438 9.28607C7.63278 9.24219 7.67117 9.19283 7.70956 9.14895C7.7315 9.12153 7.75344 9.09959 7.77538 9.07217C7.79732 9.04475 7.81925 9.02281 7.84119 8.99538C7.88507 8.94602 7.92895 8.89118 7.97282 8.84182C8.26899 8.50177 8.57613 8.16172 8.89972 7.82716C8.95457 7.77232 9.00941 7.71199 9.06426 7.65714C9.17395 7.54196 9.28913 7.43227 9.39882 7.31709C9.44818 7.26773 9.49754 7.21837 9.54691 7.17449C9.5853 7.1361 9.62369 7.09771 9.66208 7.05932C9.77178 6.95511 9.87598 6.8509 9.98567 6.74669C10.035 6.70282 10.0844 6.65346 10.1338 6.60958C10.2325 6.51634 10.3312 6.42859 10.4299 6.33535C10.5012 6.26953 10.5725 6.20372 10.6493 6.1379C10.6877 6.10499 10.7261 6.07209 10.7645 6.03918C10.8413 5.97336 10.9181 5.90755 10.9948 5.84173C11.0716 5.77592 11.1484 5.7101 11.2252 5.64429C11.834 6.15984 12.4428 6.71927 13.0406 7.31709C13.8578 8.11785 14.5927 8.94054 15.2509 9.76323Z" fill="black"/>
  <path d="M18.5088 2.68808C18.5088 2.71551 18.5088 2.74293 18.5033 2.77584C18.5033 2.78681 18.5033 2.79777 18.5033 2.80874C18.5033 2.83617 18.4978 2.86908 18.4978 2.8965C18.4978 2.90747 18.4978 2.91844 18.4978 2.9294C18.4978 2.95683 18.4923 2.97877 18.4923 3.00619C18.4923 3.02264 18.4923 3.03361 18.4868 3.05007C18.4868 3.07749 18.4813 3.09943 18.4758 3.12685C18.4758 3.14879 18.4704 3.16524 18.4704 3.18718C18.4484 3.36269 18.4155 3.54368 18.3771 3.73016C18.3716 3.7521 18.3662 3.77404 18.3607 3.79597C18.3552 3.8234 18.3497 3.84534 18.3442 3.87276C18.3387 3.91115 18.3278 3.94406 18.3168 3.98245C18.3113 4.00987 18.3058 4.0373 18.2949 4.06472C18.2894 4.08666 18.2839 4.11408 18.2784 4.13602C18.2565 4.21829 18.2345 4.30056 18.2071 4.38283C18.1961 4.41573 18.1852 4.44864 18.1742 4.48704C18.1632 4.51994 18.1577 4.55285 18.1468 4.58027C18.1413 4.6077 18.1303 4.63512 18.1193 4.66254C18.1139 4.68996 18.1029 4.7119 18.0919 4.73933C18.0864 4.75578 18.081 4.77223 18.0755 4.7832C18.0645 4.81063 18.059 4.83805 18.048 4.86547C18.0426 4.88741 18.0316 4.90935 18.0261 4.93129C18.0151 4.95871 18.0042 4.99162 17.9932 5.01904C17.9767 5.06292 17.9603 5.10679 17.9438 5.15067C17.8945 5.2823 17.8396 5.41942 17.7793 5.55653C17.7683 5.58396 17.7574 5.61138 17.7464 5.6388C17.7299 5.6772 17.7135 5.71559 17.697 5.7485C17.6806 5.7814 17.6641 5.8198 17.6477 5.8527C17.6312 5.88561 17.6148 5.924 17.5983 5.95691C17.5709 6.01724 17.5435 6.07757 17.5106 6.1379C17.4941 6.17081 17.4776 6.20372 17.4667 6.23663C17.4228 6.32986 17.3734 6.4231 17.3296 6.51634C17.1102 6.28599 16.8853 6.05015 16.655 5.81979C15.8103 4.97516 14.9438 4.20732 14.0827 3.52723C14.132 3.49432 14.1814 3.4669 14.2308 3.43399C14.2637 3.41205 14.2966 3.3956 14.3295 3.37366C14.3953 3.33527 14.4556 3.29687 14.5214 3.25848C14.5434 3.24203 14.5708 3.23106 14.5927 3.2146C14.664 3.17073 14.7353 3.12685 14.8066 3.08846C14.856 3.06104 14.8999 3.03361 14.9492 3.00619C14.9986 2.97877 15.0425 2.95134 15.0918 2.92392C15.1193 2.90747 15.1522 2.89101 15.1796 2.87456C15.3057 2.80874 15.4264 2.74293 15.5525 2.67711C15.5964 2.65518 15.6458 2.62775 15.6897 2.60581C15.7719 2.56194 15.8542 2.52354 15.942 2.48515C15.9749 2.4687 16.0023 2.45773 16.0352 2.44127C16.1504 2.38643 16.2601 2.33707 16.3752 2.28771C16.4191 2.26577 16.463 2.24931 16.5069 2.22738C16.5507 2.21092 16.5946 2.18898 16.6385 2.17253C16.6824 2.15608 16.7263 2.13414 16.7701 2.11768C16.814 2.10123 16.8579 2.08478 16.9018 2.06832C17.0334 2.01896 17.1595 1.9696 17.2912 1.92572C17.335 1.90927 17.3734 1.8983 17.4173 1.88185C17.4886 1.85991 17.5544 1.83797 17.6257 1.81603C17.6367 1.81054 17.6477 1.81054 17.6586 1.80506C17.6751 1.79957 17.697 1.79409 17.7135 1.78861C17.8122 1.76118 17.9054 1.73376 17.9987 1.70634C18.0206 1.70085 18.048 1.69537 18.07 1.68988C18.0974 1.6844 18.1303 1.67343 18.1577 1.66794C18.1961 1.65698 18.2345 1.65149 18.2729 1.64052C18.3113 1.62955 18.3497 1.62407 18.3881 1.6131C18.4813 1.93669 18.5197 2.29867 18.5088 2.68808Z" fill="black"/>
  <path d="M8.39513 3.53271C7.53405 4.2128 6.66748 4.98065 5.82285 5.82528C5.5925 6.05563 5.36763 6.28599 5.14824 6.52183C5.09888 6.42859 5.05501 6.33535 5.01113 6.24211C4.99467 6.2092 4.97822 6.1763 4.96725 6.14339C4.93983 6.08306 4.9124 6.02273 4.8795 5.9624C4.86304 5.92949 4.84659 5.8911 4.83014 5.85819C4.81368 5.82528 4.79723 5.78689 4.78077 5.75398C4.76432 5.71559 4.74787 5.6772 4.73141 5.64429C4.72044 5.61686 4.70947 5.58944 4.6985 5.56202C4.63817 5.4249 4.58881 5.29327 4.53397 5.15616C4.51751 5.11228 4.50106 5.0684 4.48461 5.02453C4.47364 4.9971 4.46267 4.9642 4.4517 4.93677C4.44073 4.91483 4.43524 4.8929 4.42976 4.87096C4.41879 4.84354 4.40782 4.81611 4.40234 4.78869C4.39685 4.77224 4.39137 4.75578 4.38588 4.74481C4.37491 4.71739 4.36943 4.69545 4.35846 4.66803C4.34749 4.6406 4.342 4.61318 4.33104 4.58576C4.32007 4.55285 4.3091 4.51994 4.30361 4.49252C4.29264 4.45961 4.28168 4.42122 4.27071 4.38831C4.24328 4.30604 4.22134 4.22377 4.1994 4.1415C4.19392 4.11957 4.18844 4.09214 4.18295 4.07021C4.17747 4.04278 4.1665 4.01536 4.16101 3.98794C4.15004 3.94954 4.14456 3.91664 4.13359 3.87824C4.12811 3.85082 4.12262 3.82888 4.11714 3.80146C4.11165 3.77952 4.10617 3.75758 4.10068 3.73564C4.06229 3.54917 4.02938 3.36818 4.00744 3.19267C4.00196 3.17073 4.00196 3.15428 4.00196 3.13234C3.99647 3.10491 3.99648 3.08298 3.99099 3.05555C3.99099 3.0391 3.98551 3.02813 3.98551 3.01167C3.98002 2.98425 3.98002 2.96231 3.98002 2.93489C3.98002 2.92392 3.98002 2.91295 3.98002 2.90198C3.98002 2.87456 3.97454 2.84165 3.97454 2.81423C3.97454 2.80326 3.97454 2.79229 3.97454 2.78132C3.97454 2.7539 3.96905 2.72099 3.96905 2.69357C3.95808 2.30416 3.99647 1.94218 4.08423 1.62407C5.34569 1.88733 6.83202 2.54548 8.39513 3.53271Z" fill="black"/>
  <path d="M18.7611 18.3741C18.6678 18.3521 18.5691 18.3302 18.4704 18.3083C18.4375 18.3028 18.4046 18.2918 18.3662 18.2808C18.3278 18.2699 18.2894 18.2589 18.251 18.2479C18.229 18.2424 18.2071 18.237 18.1852 18.2315C18.1523 18.2205 18.1248 18.215 18.0919 18.204C18.0481 18.1931 18.0042 18.1766 17.9603 18.1656C17.6312 18.0614 17.2912 17.9353 16.9402 17.7872C16.9018 17.7708 16.8634 17.7543 16.825 17.7379C16.7647 17.7104 16.7043 17.6885 16.644 17.6611C16.6056 17.6446 16.5672 17.6227 16.5233 17.6062C16.4301 17.5623 16.3369 17.5185 16.2436 17.4746C16.0901 17.3978 15.9365 17.321 15.7774 17.2388C15.7445 17.2223 15.7171 17.2058 15.6842 17.1894C15.6623 17.1784 15.6348 17.162 15.6129 17.151C15.5635 17.1236 15.5087 17.0962 15.4593 17.0687C15.399 17.0358 15.3387 17.0029 15.2783 16.97C15.2345 16.9426 15.1906 16.9206 15.1467 16.8932C15.0973 16.8658 15.0425 16.8329 14.9876 16.8C14.9493 16.778 14.9054 16.7506 14.867 16.7287C14.5928 16.5641 14.313 16.3886 14.0333 16.2022C14.7847 15.5879 15.5416 14.9078 16.2765 14.1729C16.6714 13.778 17.0499 13.3776 17.4118 12.9717C18.6185 15.1327 19.1285 17.0742 18.7611 18.3741Z" fill="black"/>
  <path d="M5.04953 12.9717C3.85388 15.1326 3.3493 17.0796 3.71677 18.3795C2.39497 18.6592 1.31451 18.5056 0.661837 17.853C-0.720284 16.4709 0.135314 13.224 2.54854 9.73027C3.23412 10.7943 4.07875 11.8912 5.04953 12.9717Z" fill="#FC1693"/>
  <path d="M18.3936 1.61853C17.1321 1.88727 15.6458 2.54542 14.0827 3.53265C13.1174 2.77029 12.1576 2.11763 11.2362 1.5911C14.1266 -0.0652494 16.6659 -0.520472 17.8451 0.664204C18.1029 0.921981 18.2839 1.24557 18.3936 1.61853Z" fill="#FC1693"/>
  <path d="M11.2362 1.5911C10.3147 2.11762 9.35493 2.77029 8.38964 3.53265C6.82652 2.54542 5.3402 1.88726 4.07874 1.61852C4.18294 1.24008 4.36393 0.921974 4.62171 0.664197C5.80639 -0.514994 8.34576 -0.0652563 11.2362 1.5911Z" fill="#FC1693"/>
  <path d="M16.6549 5.82522C16.8853 6.05558 17.1102 6.28593 17.3296 6.52177C17.3186 6.53822 17.3131 6.56016 17.3021 6.57661C17.2802 6.62049 17.2528 6.66985 17.2308 6.71921C17.2034 6.77406 17.1705 6.8289 17.1431 6.88375C17.1211 6.92763 17.0937 6.9715 17.0718 7.01538C17.0334 7.0812 17.0005 7.14701 16.9621 7.21283C16.9292 7.26767 16.9018 7.32252 16.8689 7.37737C16.8469 7.42124 16.8195 7.46512 16.7921 7.50351L16.7866 7.509C16.7701 7.53642 16.7537 7.56384 16.7372 7.59127C16.7153 7.62966 16.6879 7.67354 16.6659 7.71193C16.633 7.76677 16.6001 7.82162 16.5617 7.87647C16.5288 7.93131 16.4904 7.99164 16.4575 8.04649C16.4246 8.10133 16.3862 8.16167 16.3478 8.21651C16.3478 8.21651 16.3478 8.21651 16.3478 8.222C16.282 8.3262 16.2162 8.42493 16.1449 8.52913C16.0955 8.60043 16.0516 8.67173 16.0023 8.73755C15.931 8.83627 15.8597 8.94048 15.7884 9.04469C15.7829 9.05566 15.7719 9.06663 15.7664 9.07211C15.728 9.12147 15.6897 9.17632 15.6567 9.23116C15.6458 9.24213 15.6403 9.25859 15.6293 9.26956C15.5909 9.31892 15.558 9.36828 15.5196 9.41764C15.4867 9.467 15.4483 9.51636 15.4154 9.56024C15.4045 9.57121 15.399 9.58766 15.388 9.59863C15.3496 9.65348 15.3057 9.70833 15.2619 9.76317L15.2564 9.76866C14.5982 8.94596 13.8633 8.12327 13.057 7.31155C12.4592 6.71373 11.8504 6.1543 11.2416 5.63875C12.196 4.82702 13.1558 4.12499 14.0882 3.53265C14.9438 4.21275 15.8103 4.98059 16.6549 5.82522Z" fill="#FC1693"/>
  <path d="M21.816 17.853C21.1578 18.5111 20.0828 18.6592 18.761 18.3795C19.1285 17.0796 18.6239 15.1381 17.4283 12.9717C18.3991 11.8857 19.2437 10.7888 19.9348 9.72478C22.3425 13.224 23.1981 16.4654 21.816 17.853Z" fill="#FC1693"/>
  <path d="M11.2362 5.63875C10.6274 6.1543 10.0186 6.71373 9.42077 7.31155C8.61453 8.11779 7.87959 8.94048 7.22144 9.76866L7.21595 9.76317C7.17207 9.70833 7.13368 9.65348 7.08981 9.59863C7.07884 9.58766 7.07335 9.57121 7.06238 9.56024C7.02399 9.51088 6.99108 9.46152 6.95818 9.41764C6.91978 9.36828 6.88688 9.31892 6.84848 9.26956C6.83751 9.25859 6.83203 9.24213 6.82106 9.23116C6.78267 9.17632 6.74428 9.12696 6.71137 9.07211C6.70588 9.06114 6.69491 9.05017 6.68943 9.04469C6.61813 8.94048 6.54683 8.84176 6.47553 8.73755C6.42617 8.66625 6.38229 8.59495 6.33293 8.52913C6.26163 8.42493 6.19581 8.3262 6.13 8.222C6.13 8.222 6.13 8.222 6.13 8.21651C6.09161 8.16167 6.0587 8.10133 6.02031 8.04649C5.98191 7.99164 5.94901 7.93131 5.9161 7.87647C5.88319 7.82162 5.85028 7.76677 5.81189 7.71193C5.78995 7.67354 5.76253 7.62966 5.74059 7.59127C5.72414 7.56384 5.70768 7.53642 5.69123 7.509L5.68575 7.50351C5.65832 7.45964 5.63638 7.41576 5.60896 7.37737C5.57605 7.32252 5.54315 7.26767 5.51572 7.21283C5.47733 7.14701 5.43894 7.0812 5.40603 7.01538C5.38409 6.9715 5.35667 6.92763 5.33473 6.88375C5.30731 6.8289 5.2744 6.77406 5.24698 6.71921C5.21955 6.66985 5.19762 6.62597 5.17568 6.57661C5.16471 6.56016 5.15922 6.53822 5.14825 6.52177C5.36764 6.29141 5.59251 6.05558 5.82286 5.82522C6.66749 4.98059 7.53406 4.21275 8.39514 3.53265C9.32204 4.12499 10.2818 4.82702 11.2362 5.63875Z" fill="#FC1693"/>
  <path d="M11.2362 18.193C8.19221 20.0249 5.49378 20.5679 4.25974 19.3393C4.00197 19.0815 3.82097 18.7579 3.71677 18.385C3.75516 18.3795 3.79355 18.3685 3.83194 18.3576C3.87034 18.3521 3.90324 18.3411 3.94164 18.3301C3.96357 18.3247 3.98551 18.3192 4.00197 18.3137C4.03487 18.3082 4.06778 18.2972 4.10617 18.2863C4.14457 18.2753 4.18296 18.2643 4.22135 18.2534C4.24329 18.2479 4.26523 18.2424 4.28717 18.2369C4.32007 18.2259 4.3475 18.2204 4.3804 18.2095C4.4188 18.1985 4.45719 18.1875 4.49558 18.1711C4.83014 18.0669 5.17567 17.9407 5.52669 17.7872C5.56508 17.7707 5.60347 17.7543 5.64186 17.7378C5.7022 17.7104 5.76253 17.6884 5.82286 17.661C5.86125 17.6446 5.89964 17.6226 5.94352 17.6062C6.03676 17.5623 6.12999 17.5184 6.22323 17.4745C6.3768 17.3978 6.53037 17.321 6.68942 17.2387C6.7333 17.2168 6.78266 17.1893 6.82654 17.1619C6.84299 17.1509 6.85945 17.1455 6.8759 17.1345C6.91978 17.1126 6.96366 17.0851 7.00753 17.0632C7.12271 17.0029 7.2324 16.937 7.34758 16.8712C7.38597 16.8493 7.42436 16.8274 7.46275 16.8054C7.63826 16.7012 7.81926 16.5915 8.00025 16.4763C8.03864 16.4544 8.07703 16.427 8.11542 16.3996C8.21963 16.3337 8.32384 16.2679 8.42805 16.1966C9.37688 16.9754 10.3202 17.6446 11.2362 18.193Z" fill="#188CC5"/>
  <path d="M19.9293 9.72479C19.1998 8.66626 18.3223 7.5803 17.3296 6.52177C17.3789 6.42854 17.4228 6.3353 17.4667 6.24206C17.4831 6.20915 17.4996 6.17624 17.5106 6.14334C17.538 6.08301 17.5654 6.02268 17.5983 5.96234C17.6148 5.92944 17.6312 5.89105 17.6477 5.85814C17.6641 5.82523 17.6806 5.78684 17.697 5.75393C17.7135 5.71554 17.7299 5.67714 17.7464 5.64424C17.7574 5.61681 17.7683 5.58939 17.7793 5.56197C17.8396 5.42485 17.889 5.29322 17.9438 5.15611C17.9603 5.11223 17.9767 5.06835 17.9932 5.02448C18.0042 4.99705 18.0151 4.96415 18.0261 4.93672C18.0371 4.91478 18.0426 4.89285 18.048 4.87091C18.059 4.84348 18.07 4.81606 18.0755 4.78864C18.081 4.77218 18.0864 4.75573 18.0919 4.74476C18.1029 4.71734 18.1084 4.6954 18.1193 4.66798C18.1303 4.64055 18.1358 4.61313 18.1468 4.58571C18.1577 4.5528 18.1687 4.51989 18.1742 4.49247C18.1852 4.45956 18.1961 4.42117 18.2071 4.38826C18.2345 4.30599 18.2565 4.22372 18.2784 4.14145C18.2839 4.11952 18.2894 4.09209 18.2949 4.07015C18.3003 4.04273 18.3113 4.01531 18.3168 3.98789C18.3278 3.94949 18.3332 3.91659 18.3442 3.87819C18.3497 3.85077 18.3552 3.82883 18.3607 3.80141C18.3661 3.77947 18.3716 3.75753 18.3771 3.73559C18.4155 3.54912 18.4484 3.36812 18.4704 3.19262C18.4758 3.17068 18.4758 3.15422 18.4758 3.13229C18.4813 3.10486 18.4813 3.08292 18.4868 3.0555C18.4868 3.03905 18.4923 3.02808 18.4923 3.01162C18.4978 2.9842 18.4978 2.96226 18.4978 2.93484C18.4978 2.92387 18.4978 2.9129 18.4978 2.90193C18.4978 2.87451 18.5033 2.8416 18.5033 2.81418C18.5033 2.80321 18.5033 2.79224 18.5033 2.78127C18.5033 2.75385 18.5088 2.72094 18.5088 2.69352C18.5197 2.30411 18.4813 1.94213 18.3936 1.62402C19.7154 1.3443 20.7958 1.49787 21.4485 2.15054C22.7593 3.46136 22.0573 6.43951 19.9293 9.72479Z" fill="#188CC5"/>
  <path d="M5.14822 6.52179C4.15002 7.58581 3.27796 8.66628 2.54851 9.72481C0.420483 6.43953 -0.281546 3.46138 1.02928 2.14507C1.68743 1.48692 2.76241 1.33884 4.0842 1.61855C3.99096 1.93666 3.95806 2.29864 3.96903 2.68805C3.96903 2.71547 3.96903 2.7429 3.97451 2.7758C3.97451 2.78677 3.97451 2.79774 3.97451 2.80871C3.97451 2.83614 3.97999 2.86904 3.97999 2.89647C3.97999 2.90744 3.97999 2.9184 3.97999 2.92937C3.97999 2.9568 3.98548 2.97874 3.98548 3.00616C3.98548 3.02261 3.98548 3.03358 3.99096 3.05004C3.99096 3.07746 3.99645 3.0994 4.00193 3.12682C4.00193 3.14876 4.00742 3.16521 4.00742 3.18715C4.02936 3.36266 4.06226 3.54365 4.10066 3.73013C4.10614 3.75207 4.11163 3.774 4.11711 3.79594C4.12259 3.82337 4.12808 3.8453 4.13356 3.87273C4.13905 3.91112 4.15002 3.94403 4.16099 3.98242C4.16647 4.00984 4.17196 4.03727 4.18293 4.06469C4.18841 4.08663 4.19389 4.11405 4.19938 4.13599C4.22132 4.21826 4.24326 4.30053 4.27068 4.38279C4.28165 4.4157 4.29262 4.44861 4.30359 4.487C4.31456 4.51991 4.32004 4.55282 4.33101 4.58024C4.33649 4.60766 4.34746 4.63509 4.35843 4.66251C4.36392 4.68993 4.37489 4.71187 4.38586 4.73929C4.39134 4.75575 4.39683 4.7722 4.40231 4.78317C4.41328 4.8106 4.41876 4.83802 4.42973 4.86544C4.43522 4.88738 4.44619 4.90932 4.45167 4.93126C4.46264 4.95868 4.47361 4.99159 4.48458 5.01901C4.50103 5.06289 4.51749 5.10676 4.53394 5.15064C4.5833 5.28227 4.63815 5.41939 4.69848 5.5565C4.70945 5.58393 4.72042 5.61135 4.73139 5.63877C4.74784 5.67716 4.76429 5.71556 4.78075 5.74846C4.7972 5.78137 4.81366 5.81976 4.83011 5.85267C4.84656 5.88558 4.86302 5.92397 4.87947 5.95688C4.90689 6.01721 4.93432 6.07754 4.96722 6.13787C4.98368 6.17078 5.00013 6.20369 5.0111 6.23659C5.05498 6.33532 5.09886 6.42855 5.14822 6.52179Z" fill="#188CC5"/>
  <path d="M11.2362 14.0467C11.1703 14.1015 11.1045 14.1618 11.0442 14.2167C10.9893 14.266 10.9345 14.3099 10.8797 14.3593C10.8248 14.4086 10.77 14.4525 10.7151 14.5019C10.6548 14.5512 10.5999 14.6006 10.5396 14.65C10.4793 14.6993 10.4244 14.7487 10.3641 14.7926C10.2325 14.8968 10.1063 15.001 9.98018 15.0997C9.9363 15.1326 9.89243 15.171 9.84306 15.2039C9.83758 15.2094 9.8321 15.2094 9.82661 15.2149C9.78273 15.2478 9.73886 15.2807 9.69498 15.3136C9.61271 15.3739 9.53044 15.4397 9.44817 15.5001C9.35494 15.5659 9.26718 15.6317 9.17394 15.6975C9.03683 15.7962 8.89423 15.895 8.75711 15.9937C8.72421 16.0156 8.68581 16.0431 8.65291 16.065C8.58161 16.1144 8.51031 16.1582 8.43901 16.2076C7.68761 15.5933 6.93074 14.9132 6.1958 14.1783C5.80091 13.7834 5.42247 13.383 5.06049 12.9772C5.63089 11.9406 6.36582 10.8546 7.23239 9.76866C7.27627 9.82351 7.32014 9.87835 7.35854 9.9332C7.39693 9.98256 7.43532 10.0319 7.47371 10.0813C7.57244 10.2074 7.67665 10.3391 7.78085 10.4652C7.80828 10.4981 7.8357 10.5365 7.86861 10.5694C7.95636 10.6736 8.03863 10.7778 8.12638 10.882C8.17574 10.9369 8.21962 10.9917 8.26898 11.0466L8.27447 11.0521C8.32383 11.1124 8.37867 11.1672 8.42804 11.2276C8.42804 11.2331 8.43352 11.2331 8.43352 11.2385C8.48288 11.2989 8.53773 11.3592 8.59257 11.414C8.64194 11.4689 8.68581 11.5183 8.73517 11.5731C9.07522 11.9461 9.42623 12.319 9.7937 12.6865C9.865 12.7578 9.93082 12.8236 10.0021 12.8894C10.046 12.9333 10.0899 12.9772 10.1338 13.0156C10.2051 13.0814 10.2709 13.1472 10.3422 13.213C10.4025 13.2678 10.4573 13.3227 10.5177 13.3775C10.589 13.4433 10.6603 13.5147 10.7371 13.5805C10.7864 13.6243 10.8358 13.6682 10.8797 13.7121C10.94 13.7669 11.0003 13.8218 11.0606 13.8766C11.1155 13.937 11.1758 13.9918 11.2362 14.0467Z" fill="#188CC5"/>
  <path d="M18.7556 18.3795C18.6514 18.7579 18.4704 19.076 18.2126 19.3338C16.984 20.5624 14.2801 20.0194 11.2362 18.1875C12.1521 17.6391 13.0955 16.9699 14.0443 16.2021C14.1485 16.2734 14.2527 16.3392 14.3569 16.405C14.3953 16.4325 14.4337 16.4544 14.4721 16.4818C14.6531 16.597 14.8341 16.7067 15.0096 16.8109C15.048 16.8328 15.0864 16.8548 15.1248 16.8767C15.2399 16.9425 15.3496 17.0083 15.4648 17.0687C15.5087 17.0906 15.5526 17.118 15.5964 17.14C15.6129 17.1509 15.6293 17.1564 15.6458 17.1674C15.6897 17.1948 15.739 17.2168 15.7829 17.2442C15.942 17.3264 16.0955 17.4032 16.2491 17.48C16.3423 17.5239 16.4356 17.5678 16.5288 17.6116C16.5672 17.6281 16.6056 17.65 16.6495 17.6665C16.7098 17.6939 16.7701 17.7213 16.8305 17.7433C16.8689 17.7597 16.9073 17.7762 16.9457 17.7926C17.3022 17.9407 17.6477 18.0724 17.9768 18.1766C18.0152 18.1875 18.0535 18.1985 18.0919 18.215C18.1248 18.2259 18.1578 18.2314 18.1852 18.2424C18.2071 18.2479 18.2291 18.2533 18.251 18.2588C18.2894 18.2698 18.3278 18.2808 18.3662 18.2917C18.3991 18.3027 18.4375 18.3082 18.4704 18.3192C18.4923 18.3246 18.5143 18.3301 18.5307 18.3356C18.5691 18.3466 18.602 18.3521 18.6404 18.363C18.6788 18.363 18.7172 18.374 18.7556 18.3795Z" fill="#188CC5"/>
  <path d="M17.4228 12.9717C17.0608 13.3721 16.6824 13.7779 16.2875 14.1728C15.5471 14.9132 14.7957 15.5878 14.0443 16.2021C13.973 16.1528 13.9017 16.1089 13.8304 16.0595C13.7975 16.0376 13.7591 16.0102 13.7262 15.9882C13.5891 15.895 13.4465 15.7963 13.3093 15.692C13.2161 15.6262 13.1284 15.5604 13.0351 15.4946C12.9528 15.4343 12.8706 15.3739 12.7883 15.3081C12.7444 15.2752 12.7006 15.2423 12.6567 15.2094C12.6512 15.2039 12.6457 15.2039 12.6402 15.1984C12.5963 15.1655 12.5525 15.1271 12.5031 15.0942C12.377 14.9955 12.2453 14.8913 12.1192 14.7871C12.0589 14.7377 12.004 14.6939 11.9437 14.6445C11.8833 14.5951 11.8285 14.5458 11.7682 14.4964C11.7133 14.4525 11.6585 14.4032 11.6036 14.3538C11.5488 14.3044 11.4939 14.2606 11.4391 14.2112C11.3733 14.1564 11.3075 14.1015 11.2471 14.0412C11.3075 13.9863 11.3678 13.9315 11.4281 13.8821C11.4885 13.8328 11.5488 13.7724 11.6091 13.7176C11.6585 13.6737 11.7078 13.6298 11.7517 13.586C11.823 13.5201 11.8998 13.4543 11.9711 13.383C12.0314 13.3282 12.0863 13.2733 12.1466 13.2185C12.2179 13.1527 12.2837 13.0869 12.355 13.021C12.3989 12.9772 12.4428 12.9333 12.4867 12.8949C12.558 12.8291 12.6238 12.7578 12.6951 12.692C13.0625 12.3245 13.4136 11.9515 13.7536 11.5786C13.803 11.5237 13.8468 11.4744 13.8962 11.4195C13.951 11.3592 14.0004 11.2989 14.0553 11.244C14.0607 11.2385 14.0607 11.2385 14.0607 11.2331C14.1101 11.1727 14.1649 11.1179 14.2143 11.0576L14.2198 11.0521C14.2692 10.9972 14.313 10.9424 14.3624 10.8875C14.4501 10.7833 14.5379 10.6791 14.6202 10.5749C14.6476 10.542 14.675 10.5036 14.7079 10.4707C14.8121 10.3391 14.9163 10.2129 15.0151 10.0868C15.0535 10.0374 15.0918 9.98805 15.1302 9.93869C15.1741 9.88385 15.218 9.829 15.2564 9.77415C16.123 10.8546 16.8524 11.9406 17.4228 12.9717Z" fill="#188CC5"/>
</svg>
